<?xml version="1.0" encoding="utf-8"?>
<!-- Generator: Adobe Illustrator 25.2.3, SVG Export Plug-In . SVG Version: 6.00 Build 0)  -->
<svg version="1.1" id="Layer_1" xmlns="http://www.w3.org/2000/svg" xmlns:xlink="http://www.w3.org/1999/xlink" x="0px" y="0px"
	 viewBox="0 0 1140 1140" style="enable-background:new 0 0 1140 1140;" xml:space="preserve">
<style type="text/css">
	.st0{fill:#5B3099;}
	.st1{fill:#EFBEFF;}
	.st2{fill:#856EE6;}
	.st3{fill:#E2DEF9;}
	.st4{fill:#987FE5;}
	.st5{fill:#E1EDF9;}
	.st6{fill:#FFFFFF;}
	.st7{fill:#C6C6C6;}
	.st8{fill:#C4CACE;}
	.st9{fill:#FAD6AD;}
	.st10{fill:#347093;}
	.st11{fill:#479DA2;}
	.st12{fill:#5E1213;}
	.st13{fill:#FCE5C8;}
	.st14{fill:#DA4327;}
	.st15{fill:#F05C2F;}
	.st16{fill:#85C5C2;}
	.st17{fill:#67A3C2;}
	.st18{fill:#336F92;}
	.st19{fill:#6BA4C1;}
	.st20{fill:#B1D3D0;}
	.st21{fill:#F8AC06;}
	.st22{fill:#FAD350;}
	.st23{fill:#FCE393;}
	.st24{fill:#F37C70;}
</style>
<path class="st0" d="M369.5,906l2.8,111.1c0.8,5,1.8,15.2-2.8,25.2c-7,15.5-24.4,24.1-43.2,21l318,2.1c-1.5,0.2-21.9,2.1-34-15.7
	c-7.1-10.5-7.4-22.1-7.3-26.2c0.6-34.6,1.2-69.2,1.8-103.8L369.5,906z"/>
<path class="st1" d="M34.9,819h910v107.2c0,1.6-0.3,3.2-0.9,4.7c-0.6,1.5-1.5,2.9-2.7,4c-1.1,1.1-2.5,2.1-4,2.7
	c-1.5,0.6-3.1,0.9-4.7,0.9H47.2c-3.3,0-6.4-1.3-8.7-3.6s-3.6-5.4-3.6-8.7V819z"/>
<path class="st2" d="M50.8,261.4H929c4.2,0,8.3,1.7,11.3,4.7s4.7,7,4.7,11.3v575.2H35V277.3c0-2.1,0.4-4.2,1.2-6.1s2-3.7,3.5-5.2
	s3.2-2.7,5.2-3.5C46.7,261.8,48.7,261.4,50.8,261.4L50.8,261.4z"/>
<path class="st3" d="M488.5,928c11.9,0,21.6-11,21.6-24.6s-9.7-24.6-21.6-24.6s-21.6,11-21.6,24.6S476.5,928,488.5,928z"/>
<path class="st4" d="M307,1086.4c116.7-0.3,235.4,1.5,352.1,1.1c0.1-0.3,0.4-11.6-3.7-17.4c-1.2-1.8-2.8-3.2-4.8-4s-4.1-1.1-6.2-0.7
	l-318-2.1c-4.5,0.3-8.7,2.2-11.9,5.2C308.1,1074.3,307.2,1084.6,307,1086.4z"/>
<path class="st5" d="M79.1,313.8h821.7v492.6H79.1V313.8z"/>
<path class="st6" d="M434.5,429.7H153.9c-15.8,0-28.6,12.8-28.6,28.6v240.1c0,15.8,12.8,28.6,28.6,28.6h280.6
	c15.8,0,28.6-12.8,28.6-28.6V458.3C463.2,442.5,450.4,429.7,434.5,429.7z"/>
<path class="st7" d="M441.6,533.4H148c-0.4,0-0.8-0.2-1.1-0.4c-0.3-0.3-0.4-0.7-0.4-1.1s0.2-0.8,0.4-1.1c0.3-0.3,0.7-0.4,1.1-0.4
	h293.6c0.4,0,0.8,0.2,1.1,0.4c0.3,0.3,0.4,0.7,0.4,1.1s-0.2,0.8-0.4,1.1C442.3,533.3,442,533.4,441.6,533.4z"/>
<path class="st8" d="M143.1,648.5l302.3,1.1L143.1,648.5z"/>
<path class="st7" d="M445.4,651.1L143.1,650c-0.4,0-0.8-0.2-1.1-0.4c-0.3-0.3-0.4-0.7-0.4-1.1c0-0.2,0-0.4,0.1-0.6
	c0.1-0.2,0.2-0.3,0.3-0.5c0.1-0.1,0.3-0.2,0.5-0.3s0.4-0.1,0.6-0.1l302.3,1.1c0.4,0,0.8,0.2,1.1,0.4c0.3,0.3,0.4,0.7,0.4,1.1
	c0,0.4-0.2,0.8-0.4,1.1C446.2,650.9,445.8,651.1,445.4,651.1L445.4,651.1z"/>
<path class="st7" d="M165.4,639.7c7,0,12.6-5.7,12.6-12.6c0-7-5.7-12.6-12.6-12.6s-12.6,5.7-12.6,12.6
	C152.8,634,158.5,639.7,165.4,639.7z"/>
<path class="st7" d="M206.7,639.7c7,0,12.6-5.7,12.6-12.6c0-7-5.7-12.6-12.6-12.6c-7,0-12.6,5.7-12.6,12.6
	C194,634,199.7,639.7,206.7,639.7z"/>
<path class="st7" d="M248.3,639.7c7,0,12.6-5.7,12.6-12.6c0-7-5.7-12.6-12.6-12.6s-12.6,5.7-12.6,12.6
	C235.7,634,241.3,639.7,248.3,639.7z"/>
<path class="st7" d="M291.9,639.7c7,0,12.6-5.7,12.6-12.6c0-7-5.7-12.6-12.6-12.6c-7,0-12.6,5.7-12.6,12.6
	C279.2,634,284.9,639.7,291.9,639.7z"/>
<path class="st7" d="M329.8,639.7c7,0,12.6-5.7,12.6-12.6c0-7-5.7-12.6-12.6-12.6s-12.6,5.7-12.6,12.6
	C317.2,634,322.8,639.7,329.8,639.7z"/>
<path class="st7" d="M178.1,468c-3.2,0.1-6.3,1.2-8.8,3.1s-4.5,4.5-5.5,7.6c-2.1,6,0.3,12.9,5.1,17s11.6,5.1,17.1,1.6
	c2.7-1.8,4.8-4.3,6-7.2c1.3-3,1.6-6.2,1-9.4c-0.7-3.5-2.5-6.6-5.2-8.9S181.7,468.1,178.1,468c-0.4,0-0.8,0.2-1.1,0.4
	c-0.3,0.3-0.4,0.7-0.4,1.1s0.2,0.8,0.4,1.1c0.3,0.3,0.7,0.4,1.1,0.4c2.5,0.1,5,0.9,7,2.4s3.6,3.6,4.4,5.9c0.9,2.4,1,5.1,0.4,7.6
	s-2,4.8-3.9,6.5c-1.8,1.7-4.2,2.8-6.6,3c-2.5,0.2-5-0.4-7-1.8c-4.2-2.7-7-8-6.1-13c0.5-2.9,1.9-5.5,4.1-7.4c2.2-1.9,5-3,7.9-3.1
	C180,470.9,180.1,467.9,178.1,468z"/>
<path class="st7" d="M177.5,496.6c-7.4,0.3-14.4,3.5-19.5,8.9s-7.8,12.6-7.7,20.1c0,0.4,0.2,0.8,0.4,1.1c0.3,0.3,0.7,0.4,1.1,0.4
	c0.4,0,0.8-0.2,1.1-0.4c0.3-0.3,0.4-0.7,0.4-1.1c-0.2-6.6,2.3-13.1,6.8-17.9c4.5-4.9,10.8-7.8,17.4-8.1
	C179.5,499.5,179.5,496.5,177.5,496.6z"/>
<path class="st7" d="M205.9,525.2c-0.3-7.4-3.4-14.5-8.6-19.8c-5.2-5.3-12.3-8.4-19.7-8.8c-1.9,0-1.9,3,0,3
	c13.5,0.3,24.8,12.3,25.4,25.5C202.9,527.2,205.9,527.2,205.9,525.2z"/>
<path class="st9" d="M375.6,423.7c3.7-0.8,9-1.8,15.5-2.5c6.4-0.8,11.6-1.4,16-1.1c4.6,0.3,14.4,2,25.8,12.9
	c-8.5-1.7-15.4-2.9-20.2-3.7c-8.4-1.3-13.3-1.8-25-3.6C382.5,424.9,378.4,424.1,375.6,423.7z"/>
<path class="st6" d="M751.8,987.8c0.3,6.4,0.9,13.2,1.7,20.2c1.2,10.2,2.7,19.8,4.5,28.6l20.8-2.8c1.5-18.2,3-36.3,4.5-54.5
	L751.8,987.8z M744.3,1082.4c-1.1,1.5-3.9,5.3-3.1,10.1c0.6,2.8,2,5.2,4.2,7l52.5,0.8c1.7-1.7,2.8-4,3.1-6.4
	c0.5-6.2-5.8-10.9-8.4-12.9C778,1070,752.3,1071.4,744.3,1082.4z M473.3,1081c-2.2,1.7-3.8,4-4.5,6.6c-0.8,2.6-0.6,5.4,0.3,8
	c0.5,1.6,1.3,3.1,2.2,4.5h135.1c1.2-2.5,1.9-5.3,2-8.1c0.1-5-1.6-9.9-4.8-13.8C597.1,1078,481,1074.7,473.3,1081z"/>
<path class="st10" d="M614.3,736.2c-1.4,7.1-3.5,17.8-6.2,30.9c-4.6,22.8-6.4,30.4-10.1,48.3c-3.6,17.2-8,38.4-12.9,65.7
	c-3.5,19.1-6,32.9-8.4,50.5c-0.9,6.6-3.2,23.2-4.5,33.1c-1,7-1.7,12.9-2.2,16.8l47.2,5.6l11.2-10.1c1.5-6.6,3.8-16.5,6.7-28.6
	c6.5-26.9,11.2-44.1,19.1-74.1c14.5-54.8,12.2-48,16.3-62.3c5.4-19,13.5-46,25.3-78.6l18.5,7.3c0.1,8.4,0.5,21.1,1.7,36.5
	c2.1,26,4.9,37.6,11.8,79.7c6.1,37.4,9.2,56.6,11.2,80.3c1.8,21.1,2.2,38.4,2.2,49.4c10.1-3.1,19.9-7.2,29.2-12.4
	c6.9-3.8,13.4-8.1,19.6-12.9c1-7.3,2.2-18.2,2.8-31.4c1-19.6,0.1-31.3-1.1-56.2c-1.1-24.3-1.9-48.7-2.8-73
	c-0.9-22-1.3-34.9-4.5-53.3c-2-11.8-4.4-21.4-6.2-28.1L614.3,736.2z"/>
<path class="st6" d="M694.2,386c-0.8,3.4,1.3,6.8-0.4,14.6c-0.7,3-1.2,5.6-3.4,7.9c-3.5,3.7-7.3,2.3-9,4.9c-3,4.6,5.7,14.9,6.4,15.7
	c3,3.6,11.5,13.5,25.8,14.2c16.7,0.9,27.2-11.4,30-15c1.8-2.3,10.3-13.4,7.5-24.3c-1-3.8-2.6-4.7-4.5-10.9c-2.7-8.9-0.7-11.8-2.6-15
	C737.4,366.8,697,373.4,694.2,386z"/>
<path class="st11" d="M629.4,517.2c-0.2,0.2-5.8,4.6-13.5,10.7c-7.2,5.8-10,8-11.2,9c-11,8.6-26.1,12.9-33.7,14
	c-17.3,2.6-31-5.9-58.4-23c-22.9-14.3-39.7-30.1-50.5-40.4c-4.8-4.5-9.5-9.2-14-14c4.7-8.3,10.6-15.8,17.4-22.5
	c3.6,3.5,9,8.6,15.7,14.6c21.9,19.5,32.8,29.3,46.6,34.8c9.3,3.7,25,10,41,4.5c5.2-1.8,10.8-4.9,36.5-37.1
	C627,440.5,626.8,438,635,433c15.3-9.4,25.1-5.9,35.9-16.3c9.2-8.8,12.2-20.7,13.3-29.6c27.9-6.3,56.4-9.2,85-8.6
	c1.3,6.7,1.8,13.4,1.7,20.2c-0.1,2.9-1.5,42.1-27.5,68C710.8,499.1,647.2,503.3,629.4,517.2z"/>
<path class="st12" d="M678.5,281.5c-0.1,1.7,0.1,4.5,3.8,10.5c6.1,9.9,9.7,8.8,11.6,14.2c3.3,9.5-5.1,21.2-7.1,24
	c-3.3,4.6-4.3,3.9-7.1,8.2c-5.2,8.1-5.5,16.6-5.6,20.2s-0.3,13,5.2,22.1c8.4,13.7,23.5,16.8,27.3,17.6c17.6,3.7,31.5-4.5,35.2-6.7
	c3.7-2.3,16.2-10.5,21.3-25.5c3.8-11.2-0.5-14.5,4.9-25.5c3.8-7.8,7.6-9.4,10.1-18.4c1.3-4.5,2.7-9.8,0.4-15.3
	c-3.2-7.8-11.3-10.7-13.1-11.2c2.1-1.8,4-3.8,5.6-6c2.4-3.2,4.4-5.9,3.4-7.9c-0.8-1.6-3.6-2.4-5.2-1.5c-1.5,0.8-1.5,2.4-2.6,4.9
	c-1.2,2.5-3,4.7-5.2,6.4c-1.9-2.5-3.7-5.1-5.2-7.9c-2.3-4-2.5-5.2-4.5-7.9c-2.2-3-4.8-6.4-8.6-6.7c-1.8-0.1-4.9,0.4-6,2.6
	c-0.2,0.6-0.4,1.2-0.4,1.9s0.1,1.3,0.4,1.9c-3.1-2.7-6.5-5.1-10.1-7.1c-6.4-3.5-16-8.8-27.3-6.4c-6.1,1.4-11.6,4.7-15.7,9.4
	C681.6,273.8,678.8,276.9,678.5,281.5z"/>
<path class="st13" d="M684.8,338.4c1.3,3,2.6,5.9,5.2,6.7c2.3,0.7,3.5-1,9-3c3.3-1.2,6.8-2.5,10.5-2.2c2.8,0.2,5.4,1.9,10.5,5.2
	c2.6,1.7,4.3,3,11.2,7.9c3.7,2.6,5.6,3.9,7.9,3.7c1.8-0.1,3.3-1.1,6.4-3c3.8-2.4,4.6-3.9,7.5-4.9c1.6-0.5,3.2-0.8,4.9-0.8
	c0.4,2.4,1.5,4.7,3.4,6.4c3.7,3.2,8.5,2.4,9.7,2.2c3.5-0.6,5.7-2.4,9.7-6c4.3-3.8,6.5-5.7,7.5-9c0.2-0.6,2-7.1-2.2-11.6
	c-3.4-3.6-8.2-3.4-9.4-3.4c-2.5,0.2-4.9,1-7.1,2.2c-2.6,1.3-5.1,3.1-7.1,5.2c-1.1-4.3-1.8-7.8-2.2-10.1c-0.8-4.6-1-6.8-1.9-11.6
	c-0.7-3.6-1.4-6.5-1.9-8.2c-2.4,0.5-5.6,1-9.4,1.5c-6.2,0.8-12.5,1.2-18.7,1.2c-7.4,0-14.8-0.7-22.1-1.9c-5.8-1-11.6-2.4-17.2-4.1
	c-0.4,2.4-1.2,6-2.2,10.5c-0.8,3.3-1.1,4.2-1.9,7.5c-1.4,5.8-2,8.8-1.9,11.6C683.1,333.3,683.8,335.9,684.8,338.4z"/>
<path class="st14" d="M634.5,470.5c-0.9,3.2-2.1,7.4-3.4,12.5c0,0-2,8.1-3.4,15.2c-2.6,13.3-1.4,16.7-3.4,32.6
	c-1.4,11.5-2,9.4-4.5,26.4c-1.5,10.3-1.5,12.2-3.4,25.3c-2.2,15-3.3,19.5-3.9,21.9c-1.7,6.3-3.7,12.5-6.2,18.5
	c-5.5,14.3-7.5,15.1-10.1,23.6c-2.5,8-3.6,16.3-3.4,24.7c0.4,13.3,4.2,23,7.9,32c3.3,8.3,7.4,16.2,12.4,23.6
	c6.3-7.9,12-16.3,17-25.1c4.1-7.3,13.5-24.2,18.4-46.3c1.6-7,0.7-5.5,3-48.7c0.8-14.8,1.9-34.1,3.7-56.8c0.9-11.2,1.4-17,2.2-24.2
	c1.7-14.8,4.3-29.4,7.9-43.8c-3-0.4-6-0.9-9-1.7C648.6,478.1,641.2,474.9,634.5,470.5z M705.8,498.1c-2.5,8.3-6.5,21.4-10.1,34.8
	c-5.2,19.1-7.8,28.9-10.1,42.7c-0.9,5.2-1.9,15.1-3.9,34.8c-2.4,23.4-2.7,29.5-2.8,34.3c-0.2,9.9,0.2,19.9,1.2,29.8
	c1.8,5.6,4.4,10.9,7.9,15.7c5.3,7.3,10.2,10,9.5,14.6c-0.3,1.7-1.2,3.2-2.4,4.4s-2.7,2-4.4,2.4c-4.7,1-8.2-2.6-8.4-2.8
	c2.2,3.7,3.8,7.7,5,11.8c0.8,2.9,1.4,6,1.7,9c6.7-2.3,13.4-4.6,20.2-6.7c24.4-7.7,36.7-11.6,50-13.5c10-1.4,16-2.4,28.1-4.5
	c9.2-1.6,14.2-2.5,18-6.7c3.4-3.8,4-8.2,5.1-16.3c1-7.6,1-15.4,0-23c2-20.3,2.2-40.8,0.6-61.2c-1.4-16-3.4-25.2-3.9-46.6
	c-0.3-11.8,0.2-15.3-1.1-23.6c-2.5-15.7-7.9-26.6-12.9-36.5c-7.4-14.6-11.2-21.9-18.5-24.7c-2.9-1.1-9.1-0.4-21.3,1.1
	c-21.7,2.7-26.7,4.8-30.3,6.7c-4.6,2.5-8.8,5.7-12.4,9.5C709.2,487.1,707.6,492.1,705.8,498.1z"/>
<path class="st15" d="M720.4,509.3c3.2,4.3,6.4,8.6,9.5,12.9c7.1-4.5,14.4-9.3,21.9-14.6c10.4-7.4,20.6-15.2,30.4-23.5
	c2.5,4,5,8,7.4,12c-0.2,4.6-0.1,9.2,0.4,13.8c0.8,8.7,2.6,14.4,6.2,27.5c1.4,5.2,3.6,13.1,6.2,23c0.6,7.5,1.1,17.5,1.1,29.2
	c0.2,14.8-0.6,29.6-2.2,44.4c-1.6,13.8-4,27.5-7.3,41c-26.4,12.1-54.7,19.5-83.7,21.9c-7.4-45.7-7.6-92.4-0.6-138.2
	C712.3,542.1,715.9,525.6,720.4,509.3z M633.4,499.2l16.9-7.3c-1,10-2.5,22.8-4.5,37.6c-1.7,12.4-5.7,40-12.9,75.2
	c-5.1,25-12,54.4-21.3,87.1c-7.9-7.6-10.6-14.7-11.2-20.2c-0.7-5.5,0.6-8.8,2.8-19.7c2.6-12.5,1.9-13.2,3.9-23.6
	c4.3-22.1,8.4-25.7,12.9-46c2.2-10,1.7-11.2,4.5-30.9C626.1,539.2,628.9,521.3,633.4,499.2z"/>
<path class="st16" d="M953.5,577.3c11.2,2.6,22.8,3.6,34.2,2.8c2.6-12.7,5.2-25.5,7.9-38.2c-2.1-0.8-14.1-5-25.8,1.1
	C958.2,549.1,951.5,562.8,953.5,577.3z"/>
<path class="st9" d="M686.7,423.4c4.4,5.1,10.2,8.8,16.7,10.6c6.5,1.8,13.4,1.6,19.8-0.5c1,10.1,1.2,20.2,0.6,30.3
	c-1.3,22-6,35.8-11.2,55c-6.2,22.7-12.9,47.3-16.3,76.9c-0.4,3.7-0.5,23.5-0.6,62.9c0,21.8,0.1,32.8,7.9,39.3
	c4.7,3.9,10.9,5.2,30.9,3.4c18.6-1.7,37-4.9,55-9.5c-0.7,7.2-1.3,14.7-1.7,22.5c-0.3,5-0.4,9.8-0.6,14.6
	c-9.3,6.5-19.3,11.9-29.8,16.3c-19.7,8.2-35.3,9.7-65.7,12.4c-53,4.7-66.5-1.4-74.1-6.2c-5-3.1-9.5-6.9-13.5-11.2
	c7.1-9,13.7-18.3,19.7-28.1c5.3-8.6,14.4-23.4,20.2-39.9c6-17.1,6.7-30.6,7.3-56.2c0.6-25.6,0.9-54.7,0.6-87
	c4.9-25.6,9.7-51.3,14.6-76.9L686.7,423.4z"/>
<path class="st17" d="M736.7,972.6c4.2,1.2,8.5,1.8,12.9,1.7c5.9-0.2,10-1.6,20.8-5.6c9-3.3,16-5.9,19.7-7.3
	c2.6,7.4,4.1,15.2,4.5,23c-4.5,3.3-9.4,5.9-14.6,7.9c-4.6,1.7-4.3,0.9-18,3.9c-10.4,2.3-13.8,3.5-19.1,2.2c-2.8-0.7-5.5-1.8-7.9-3.4
	c0.5-3.4,0.8-6.9,1.1-10.7C736.5,980.3,736.6,976.4,736.7,972.6z"/>
<path class="st13" d="M575,997.9c-0.4,5.5-0.9,11.3-1.7,17.4c-0.9,7.2-2.1,13.9-3.4,20.2l24.1,6.7l7.9-19.1l6.2-21.3L575,997.9z"/>
<path class="st18" d="M576.1,1029.9c4.5,5.2,10.6,10.8,16.3,9.5c4.8-1,7.5-6.4,9-5.6s-1,5.2-1.1,12.9c0,4.4,0.5,8.7,1.7,12.9
	c1.2,5.2,2.2,6.1,3.4,10.7c1.2,4.8,1.8,9.7,1.7,14.6c-14.7,1.8-27,2.8-35.9,3.4c-24.7,1.6-47.2,3-75.3-1.1
	c-7.9-1.1-14.4-2.5-18.5-3.4c12.7-0.2,25.3-1.9,37.6-5.1c12.5-3.2,23.1-6.1,34.2-14.6c5.7-4.4,10.8-9.5,15.2-15.2
	C569,1043.1,572.9,1036.7,576.1,1029.9z"/>
<path class="st19" d="M563.7,1024.8c-5.5,1.6-5.7,8.8-10.7,17.4c-4.7,8.1-10.8,12.4-19.6,18.5c-6.7,4.7-13.5,9.4-23.6,11.8
	c-12.7,3-19.1,2.8-19.1,2.8c-4.9-0.1-9.8-0.9-13.5,2.2c-0.3,0.2-3.5,3-2.8,5.1c1.6,4.9,23.8,1.6,30.9,0.6c18.4-2.7,28.9-4.2,41-11.8
	c14.2-8.9,20.2-19.6,21.9-23s8.3-16.3,3.3-21.6c-1-1-2.3-1.7-3.7-2C566.5,1024.5,565.1,1024.5,563.7,1024.8z"/>
<path class="st18" d="M751.8,1030.5c0.2,3.4,0.4,8.2,0.6,14c0.4,13,0.2,14.1,0,15.2c-1.8,7.9-6.1,9.1-9,18
	c-1.2,3.8-1.8,7.8-1.7,11.8c3.1-2.9,6.7-5.2,10.7-6.7c1-0.4,2.6-1,10.7-2.2c14.1-2.3,16.6-1.8,18.5-1.1c2.4,0.8,4.2,2,7.9,4.5
	c3.2,2.2,6.2,4.6,9,7.3c0.9-4.7,0.5-9.5-1.1-14c-1.6-4.3-3.2-4.6-5.6-10.1c-1.7-4.1-2.9-8.5-3.4-12.9c-0.6-4.3-0.2-5-0.6-13.5
	c-0.4-8.1-0.6-12.1-1.7-12.4c-1.6-0.3-4.8,5-5.7,10.6c-0.4,2.3,0,5.1,0.7,10.7c0.9,7.4,1.7,12.1,1.7,12.1c0.7,3.1,0.9,6.3,0.6,9.5
	c-0.2,1.3-0.5,2.6-0.8,3.9c-3.5,0-7.2,0-11.2,0.3c-3.8,0.3-7.4,0.6-10.7,1.1c-0.3-4-0.5-7.2-0.6-9.3c-0.4-8-0.4-10-0.8-15.4
	c-0.6-6.9-0.7-5.5-0.8-8.7c-0.2-6.6,0.7-9.8-1.3-11.6C756.2,1030.8,754.8,1030.1,751.8,1030.5z"/>
<path class="st19" d="M758,1027.7c2.1,0.2,5.4,0.4,9.5,0.6c2.5,0.1,3.4,0.2,5,0.3c6.1,0.5,9.2,0.8,10.6,2.4c1.6,1.9,0.6,4.3,0.1,8.8
	c-0.8,7.3,1.2,8.9,2.2,19.7c0.5,5.6,0.6,11.2,0.3,16.8l-29.8,1.4c-0.8-3.5-1.2-7.1-1.4-10.7c-0.4-8.5,1.4-9.8,0.8-17.4
	c-0.5-6.7-2-8.3-1.1-13.2C754.9,1033.2,756.2,1030.3,758,1027.7z"/>
<path class="st13" d="M465.7,455.4c-3.6-4.4-7.5-8.6-11.8-12.4c-6.6-5.8-13.5-12-24.4-15.4c-6.3-2-12.8-2.8-19.4-2.5
	c-4.7,0.2-10.3,1.6-21.6,4.5c-8,2-11.4,3.2-18.2,4.2c-3.6,0.6-7.3,0.9-11,1.1c1.6,2.3,3.7,4.2,6.2,5.6c2.7,1.5,5.6,2.2,17.4,2
	c7.7-0.2,9.9-0.5,17.4-0.6c6.4,0,9.6,0,11.5,0.6c4.1,1.3,5.5,3.2,14.3,11.2c4.5,4.1,7.6,6.9,10.9,9.5c4.9,3.9,10.2,7.2,15.7,10.1
	L465.7,455.4z"/>
<path class="st20" d="M715.9,411c7.8-3.4,14.3-6.5,19.1-9c8.8-4.5,14.8-7.6,21.9-12.9c4.4-3.2,8.5-6.8,12.4-10.7
	c2.6,6.4,5.4,12.8,8.4,19.1c2.2,4.7,4.5,9.2,6.7,13.5c7.6,1.8,15.1,4.1,22.5,6.7c10.3,3.8,15.6,5.7,21.3,10.1
	c5.4,4.1,8.5,8.2,12.9,14c5.2,6.8,6.6,10.1,12.4,19.6c3.3,5.4,2.1,3.2,16.3,24.7c4.9,7.5,9.7,14.8,15.7,24.1
	c4.5,7,8.1,12.8,10.7,16.9c5.2,0.3,10.3,1.4,15.2,3.4c4.4,1.8,5.9,3.2,9.5,4.5c6,2.2,10.2,1.4,18,1.1c10.5-0.4,20.3,0.7,39.9,2.8
	c3.5,0.4,6.3,0.7,8,1l-20.3,42.3c-5.5,0.8-13.5,1.8-23,2.8c-12.8,1.4-19.2,2.1-25.8,2.2c-11.9,0.3-23.2,0.6-36.5-3.4
	c-12.5-3.8-20.9-9.6-28.1-14.6c-11.3-7.9-17.9-15.3-29.2-28.1c-9.9-11.2-19.1-23-27.6-35.3c-7.3-10.5-14-21.4-20.2-32.6
	c-13.5,2.4-27.4,4.6-41.6,6.7c-8.1,1.2-16.2,2.3-24.2,3.4c3.5-7.1,5.6-14.7,6.2-22.5c0.4-4.6-0.2-4.3,0-12.9
	c0.3-12.1,1.5-15.1,1.1-23.6C717.4,420,716.8,415.5,715.9,411z M682.8,390.3c1.1,3.9,1.8,7.2,2.2,9.6c1.9,9.7,1.7,13.8,4.5,19.1
	c1.3,2.5,3,4.8,5,6.7c-4.5,6.2-8.1,11.6-10.7,15.7c-4.6,7-8.7,14.3-12.4,21.9c-2.3,4.9-4.4,10-6.2,15.2c-11.9-1-23.5-4.3-34.3-9.5
	c3.8-18.3,4.3-22.4,3.9-22.5c-0.6-0.1-3.3,13-10.1,30.3c-3.4,8.6-5.6,12.8-15.2,32c-4,8-10,20.2-17.4,35.4
	c-6.1,4.8-12.9,8.6-20.2,11.2c-6.8,2.5-13.2,4.8-20.8,3.9c-5-0.6-8.2-2.3-23.6-13.5c-14.6-10.5-21.8-15.8-28.1-21.3
	c-3.7-3.3-9.2-8.8-20.2-19.7c-7.2-7.2-13.2-13.2-17.4-17.4c1.8-4.6,4.1-9.5,6.7-14.6c2.6-5,5.3-9.5,7.9-13.5
	c3.6,2.3,8.9,5.6,15.2,9.6c2.8,1.8,15.3,9.7,32.6,20.8c4.4,2.8,10.4,6.7,17.4,11.2c1.7-1.4,3.7-2.4,5.9-2.8s4.4-0.2,6.5,0.5
	c3.6-2.4,8.9-6.2,15.2-11.2c13.9-11.2,17.2-16.3,34.8-33.1c18-17.2,26.6-23.2,31.4-26.4c8.5-5.6,12.7-8.4,18-10.1
	c8.1-2.6,13.6-2.1,19.7-7.3c2.5-2.2,4.6-4.9,6.2-7.9C681.5,398.8,682.6,394.6,682.8,390.3z"/>
<path class="st6" d="M472.4,488.1c3.1,8.4,10.3,14.1,17,19.6l24.9,20.5l24.9,20.5c1.6,1.5,3.5,2.8,5.4,3.8c2.1,0.9,4.5,1.2,6.8,0.6
	c2.2-0.5,4.4-1.2,6.5-2c1.9-0.7,3.8-1.4,5.7-2.2c8-3.3,15.9-8,19.9-16c0.7-1.4-1.5-2.7-2.2-1.3c-3.3,6.8-9.8,11-16.5,14
	c-3.5,1.6-7.1,2.9-10.7,4.1c-2.3,0.8-4.8,1.5-7.2,0.9c-2.2-0.6-3.9-2.1-5.6-3.5l-47.1-38.9c-7.2-5.9-16.1-11.9-19.4-21
	C474.2,486,471.8,486.6,472.4,488.1L472.4,488.1z M749,515.7c-21,44.3-31.8,92.7-31.8,141.8c0,13.8,0.9,27.5,2.7,41.2
	c0.2,1.6,2.7,1.6,2.5,0c-6.2-48.3-1.5-97.4,13.6-143.6c4.2-13,9.3-25.7,15.2-38C751.9,515.5,749.7,514.3,749,515.7L749,515.7z
	 M778.5,503.9c7.8,15.5,12.5,32.4,13.6,49.7c0.3,4.9,0.4,9.8,0.1,14.7c-0.1,1.6,2.4,1.6,2.5,0c0.9-17.7-1.9-35.3-8-51.9
	c-1.7-4.7-3.7-9.3-6-13.7C780,501.2,777.9,502.5,778.5,503.9L778.5,503.9z M781.1,471.9c2.3,11.4,8.7,21.2,15.1,30.7
	c6.4,9.5,12.8,19,19.8,28.1c13.7,17.7,30.2,33.8,51.3,42.3c11.4,4.6,23.8,6.8,36,5.3c0.5-0.1,0.5-0.8,0-0.8
	c-22,2.7-43.7-6.5-60.6-20c-17.7-14.2-30.8-33-43.4-51.6c-7.1-10.6-14.9-21.4-17.4-34.1C781.8,471.3,781,471.5,781.1,471.9
	L781.1,471.9z M696.3,268.3c-4.2-1.6-8,1.5-9.7,5.3c-2,4.4-0.7,9,2.7,12.3c3.8,3.7,9.2,5.4,14.3,6.3c7.2,1.2,14.5,1.4,21.7,0.6
	c4-0.4,8.3-0.9,12,0.7c3.1,1.3,5.7,4,5.7,7.5c0,0.1,0.1,0.2,0.1,0.2c0.1,0.1,0.2,0.1,0.2,0.1c0.1,0,0.2,0,0.2-0.1
	c0.1-0.1,0.1-0.1,0.1-0.2c-0.1-5-4.8-8.4-9.3-9.1c-3.2-0.4-6.4-0.3-9.6,0.2c-3.5,0.4-7,0.5-10.5,0.5c-6.1-0.2-12.5-0.9-18.2-3.2
	c-4.6-1.9-9.7-5.7-9.8-11.1c-0.1-4.9,4.2-11.2,9.8-9.2C696.5,269.1,696.7,268.4,696.3,268.3z M678.5,352.5c-3.1,10.4,2.7,22,12,27
	c2.7,1.4,5.6,2.3,8.6,2.4c0.5,0,0.5-0.7,0-0.8c-13.4-0.8-23.8-15.7-19.9-28.5C679.3,352.2,678.6,352,678.5,352.5L678.5,352.5z
	 M727,757c3.2,28.2,6.6,56.3,10.1,84.4c3.5,28.1,7.1,56.2,10.9,84.2c2.1,15.8,4.3,31.5,6.5,47.3c0.2,1.6,2.6,0.9,2.4-0.7
	c-3.9-28-7.7-55.9-11.4-83.9s-7.1-56-10.5-83.9c-1.9-15.8-3.7-31.6-5.5-47.4C729.3,755.4,726.8,755.4,727,757L727,757z M675.5,760.7
	c-7.8,11-12.8,23.5-16.7,36.3c-4.2,13.8-7.5,27.8-11,41.8c-7.6,30-15.3,60-22.9,89.9l-13,50.8c-0.1,0.3,0,0.7,0.1,1
	c0.2,0.3,0.4,0.5,0.8,0.6c0.3,0.1,0.7,0,1-0.1s0.5-0.4,0.6-0.8c7.6-30,15.3-60,22.9-89.9l11.3-44.5c3.6-14.2,7-28.5,11-42.6
	c4.1-14.5,9.3-28.8,18.1-41.2C678.5,760.6,676.3,759.4,675.5,760.7L675.5,760.7z M548.6,1044.9l8.5,0.2l-0.3-0.2
	c1.7,3.3,2.6,7.1,2.6,10.8c0,0.1,0.1,0.2,0.1,0.2c0.1,0.1,0.2,0.1,0.2,0.1c0.1,0,0.2,0,0.2-0.1c0.1-0.1,0.1-0.1,0.1-0.2
	c0-3.9-1-7.7-2.8-11.2c0-0.1-0.1-0.1-0.1-0.1c-0.1,0-0.1,0-0.2,0l-8.5-0.2c-0.1,0-0.2,0.1-0.2,0.1c-0.1,0.1-0.1,0.2-0.1,0.2
	s0,0.2,0.1,0.2C548.4,1044.8,548.5,1044.9,548.6,1044.9z M532.8,1063c6.3-0.6,11,8.2,6.8,13c-0.3,0.4,0.2,0.9,0.5,0.5
	c3.6-4.1,1.4-10.9-3.1-13.4c-1.3-0.7-2.7-1-4.2-0.9C532.4,1062.2,532.4,1063,532.8,1063L532.8,1063z M510.1,1071.9
	c2.2,1.1,4.1,2.6,5.7,4.5c1.5,1.9,2.7,4.1,3.3,6.4c0,0.1,0.1,0.2,0.2,0.2c0.1,0,0.2,0.1,0.3,0c0.1,0,0.2-0.1,0.2-0.2
	c0.1-0.1,0.1-0.2,0.1-0.3c-0.6-2.4-1.8-4.7-3.4-6.7c-1.6-2-3.6-3.6-5.9-4.7C510.1,1071,509.7,1071.7,510.1,1071.9z"/>
<path class="st6" d="M557.5,1046.9c5.1-3.4,11.8-1.4,16,2.5c4.9,4.5,6.5,11.5,7.6,17.8c0.3,1.6,0.5,3.1,0.7,4.7
	c0.3,1.5,0.1,3.1-0.5,4.5c-2,3.4-6.9,0.6-9.3-0.8c-5.4-3.2-10-7.7-13.3-13.1s-5.1-11.6-5.4-17.9c0-0.5-0.8-0.5-0.8,0
	c0.3,6.6,2.2,13,5.7,18.6c3.4,5.6,8.3,10.2,14,13.5c2.4,1.3,6,3.2,8.6,1.4c2.4-1.7,1.9-5.2,1.5-7.7c-1-7-2.2-14.8-7.1-20.3
	c-4.4-4.8-12.2-7.6-18-3.7C556.7,1046.5,557.1,1047.2,557.5,1046.9L557.5,1046.9z M775.8,1039c-5.3-1.8-11-2.3-16.5-1.5
	c-0.4,0.1-0.3,0.7,0.1,0.7h13.8c0.1,0,0.2-0.1,0.2-0.1c0.1-0.1,0.1-0.2,0.1-0.2c0-0.1,0-0.2-0.1-0.2c-0.1-0.1-0.1-0.1-0.2-0.1h-13.8
	l0.1,0.7c5.4-0.8,11-0.2,16.1,1.5C776,1039.9,776.2,1039.2,775.8,1039z M766.5,1050.9l-6,0.2l0.1,0.7c4.4-1.1,9-0.8,13.2,0.8
	c0.5,0.2,0.6-0.5,0.2-0.7c-4.3-1.7-9.1-2-13.6-0.8c-0.1,0-0.2,0.1-0.2,0.2s-0.1,0.2-0.1,0.2c0,0.1,0.1,0.2,0.1,0.2
	c0.1,0.1,0.1,0.1,0.2,0.1l6-0.2c0.1,0,0.2-0.1,0.2-0.1c0.1-0.1,0.1-0.2,0.1-0.2s0-0.2-0.1-0.2
	C766.6,1050.9,766.5,1050.9,766.5,1050.9z M773.2,1066.9c-2.3-0.7-4.7-0.7-7.1-0.1c-2.3,0.6-4.4,1.8-6.2,3.4
	c-0.1,0.1-0.1,0.1-0.1,0.2s0,0.2,0,0.2c0,0.1,0.1,0.1,0.2,0.2c0.1,0,0.2,0,0.2,0c4.1-1.3,8.5-1.7,12.8-1.2c0.5,0.1,0.5-0.7,0-0.8
	c-4.4-0.6-8.8-0.2-13,1.2l0.4,0.6c1.6-1.6,3.6-2.7,5.8-3.2s4.5-0.5,6.7,0.2c0.1,0,0.2,0,0.3-0.1c0.1,0,0.1-0.1,0.2-0.2
	c0-0.1,0-0.2,0-0.3C773.4,1067,773.3,1066.9,773.2,1066.9L773.2,1066.9z"/>
<path class="st6" d="M782,1037c-10.1,2.1-19.5,6.9-27.1,13.8c-0.4,0.3,0.2,0.9,0.5,0.5c7.6-6.9,16.8-11.6,26.8-13.7
	C782.7,1037.6,782.5,1036.9,782,1037z"/>
<path class="st6" d="M764.1,1042.3c3.6,9.3,5.7,19.2,6.2,29.2c0,0.5,0.8,0.5,0.8,0c-0.5-10.1-2.6-20-6.3-29.4
	C764.6,1041.6,763.9,1041.8,764.1,1042.3z"/>
<path class="st6" d="M773.3,1064.3c-8.5-1.4-17.2,5.3-18,13.9c0,0.5,0.7,0.5,0.8,0c0.8-8.1,9.1-14.5,17.1-13.2
	C773.6,1065.1,773.8,1064.4,773.3,1064.3L773.3,1064.3z"/>
<path class="st6" d="M768.5,1063.1c4.2,1.1,8.1,3,11.6,5.6s6.3,5.9,8.5,9.7c0.1,0.1,0.1,0.1,0.2,0.1c0.1,0,0.2,0,0.3-0.1
	c0.1,0,0.1-0.1,0.2-0.2c0-0.1,0-0.2,0-0.3c-2.2-3.8-5.2-7.2-8.7-9.9c-3.5-2.7-7.6-4.6-11.8-5.8c-0.1,0-0.2,0-0.3,0
	c-0.1,0.1-0.1,0.1-0.2,0.2c0,0.1,0,0.2,0,0.3C768.4,1063,768.4,1063,768.5,1063.1z M550.8,1062.2c-8.3-1-16.8-0.3-24.8,2
	c-0.1,0-0.2,0.1-0.2,0.2s-0.1,0.2,0,0.3c0,0.1,0.1,0.2,0.2,0.2c0.1,0,0.2,0.1,0.3,0c8-2.3,16.4-3,24.6-2
	C551.3,1063,551.3,1062.2,550.8,1062.2L550.8,1062.2z"/>
<path class="st6" d="M545.9,1059.8l-19.9,16.1c-0.4,0.3,0.2,0.8,0.5,0.5l19.9-16.1C546.8,1060.1,546.3,1059.5,545.9,1059.8
	L545.9,1059.8z M514.6,1070.4c2.1,0.4,3.9,1.6,5.2,3.3c1.2,1.7,1.8,3.8,1.5,5.9s-1.3,4-2.9,5.4s-3.7,2.1-5.8,1.9
	c-0.1,0-0.2,0.1-0.2,0.1c-0.1,0.1-0.1,0.2-0.1,0.2c0,0.1,0,0.2,0.1,0.2c0.1,0.1,0.1,0.1,0.2,0.1c2.3,0.1,4.5-0.6,6.3-2.1
	s2.9-3.6,3.2-5.9s-0.3-4.6-1.7-6.4c-1.3-1.9-3.4-3.1-5.6-3.6C514.3,1069.6,514.1,1070.3,514.6,1070.4L514.6,1070.4z M489.7,1074.3
	c2.5,2.1,4.1,5,4.5,8.2c0.5,3.2-0.3,6.4-2.1,9.1c-0.3,0.4,0.4,0.8,0.6,0.4c1.9-2.8,2.6-6.2,2.2-9.6c-0.5-3.3-2.2-6.4-4.7-8.6
	C489.8,1073.4,489.3,1074,489.7,1074.3z M621.5,594.9l-17.9,53.2l-4.4,13.2c-1.5,4.2-2.8,8.5-3.8,12.8c-0.9,4.1-1.1,8.4-0.5,12.6
	c0.7,3.7,1.8,7.2,3.3,10.6c3,7.3,7.2,15.2,5.5,23.3c-0.2,1.1,1.2,2.3,2.1,1.2c10.4-13.3,19.4-27.8,26.6-43c2.1-4.4,4-8.8,5.7-13.2
	c0.6-1.5-1.8-2.1-2.4-0.7c-6.1,15.4-13.9,30-23.3,43.7c-2.7,3.9-5.5,7.8-8.4,11.5l2.1,1.2c1.5-7.2-1-14.1-3.8-20.6
	c-1.5-3.4-2.9-6.8-4-10.3c-1.2-3.9-1.6-8.1-1.1-12.2c0.6-4.4,1.7-8.8,3.2-13c1.5-4.4,2.9-8.7,4.4-13.1l9-26.6l10.1-29.9
	C624.5,594,622,593.4,621.5,594.9L621.5,594.9z"/>
<path class="st17" d="M568.8,972.1c-1.9,6.3-3.4,12.7-4.5,19.1c-0.4,2.5-0.8,4.9-1.1,7.3c3.2,2.6,6.8,4.7,10.7,6.2
	c5.8,2.3,11.1,2.5,21.3,2.8c7.6,0.2,11.5,0.4,16.3-0.6c5.7-1.1,12-2.3,15.7-7.3c1.1-1.4,1.8-4.1,3.4-9.5c1.3-4.4,2.2-8.9,2.8-13.5
	c0.4-3,0.5-6,0.6-9c-3.6,4.9-8.5,8.7-14,11.2c-9.2,4-17.8,2.6-27,1.1C584.5,978.5,576.4,975.9,568.8,972.1z"/>
<path class="st6" d="M209,329.9h-97.8c-7.4,0-13.5,6-13.5,13.5c0,7.4,6,13.5,13.5,13.5H209c7.4,0,13.5-6,13.5-13.5
	C222.4,335.9,216.4,329.9,209,329.9z"/>
<path class="st6" d="M342.8,329.9H245c-7.4,0-13.5,6-13.5,13.5c0,7.4,6,13.5,13.5,13.5h97.8c7.4,0,13.5-6,13.5-13.5
	S350.2,329.9,342.8,329.9z"/>
<path class="st6" d="M476.5,329.9h-97.8c-7.4,0-13.5,6-13.5,13.5c0,7.4,6,13.5,13.5,13.5h97.8c7.4,0,13.5-6,13.5-13.5
	C489.9,335.9,483.9,329.9,476.5,329.9z"/>
<path class="st21" d="M799.8,1060.8l17.4-7.8c2.1-1,3.8-2.7,4.9-4.8c1.1-2.1,1.4-4.4,1-6.8c-1.1-6.9-2.3-13.8-3.4-20.7
	c-0.3-1.8-0.2-3.7,0.4-5.4c0.6-1.7,1.6-3.3,2.9-4.5l18.7-16.8c1.3-1.2,2.3-2.7,2.9-4.4c0.6-1.7,0.8-3.4,0.5-5.2
	c-0.5-4.1-1.1-8.2-1.6-12.3c-0.2-1.6-0.1-3.1,0.4-4.6c0.4-1.5,1.2-2.9,2.2-4.1l10.4-11.8c1.1-1.3,1.9-2.8,2.3-4.4
	c0.4-1.6,0.5-3.4,0.1-5l-7.6-38c-0.4-1.8-0.3-3.7,0.3-5.5s1.6-3.4,2.9-4.7l25.6-23.8c1.3-1.3,2.3-2.8,2.9-4.6
	c0.6-1.7,0.7-3.6,0.4-5.4l-3.4-19.1c-0.4-1.9-0.2-3.9,0.5-5.8c0.7-1.8,1.8-3.5,3.4-4.7c1.9-1.5,12.1-8.6,14-10.1
	c9.4-25,11.3-46.4,20.8-71.4c-1-6.5,0.3-27.6-0.8-34.1c-1.7-10.6-17.7,2.8-21.2,12.9C860.3,834.6,823.6,941,787,1047.5
	C784,1056.1,792,1064.4,799.8,1060.8z"/>
<path class="st22" d="M966.4,454.4c-72-28.2-152.8,23.2-170.2,94.4c-14.6,60.1,21.3,112.3,26.9,120.1c5.5,7.4,9,16.1,10.3,25.2
	c1.1,7.7,0.5,15.5-1.6,22.9l-92.3,300.5c2.1,13.9,4.1,27.9,6.1,41.8c0.8,5.1,2.8,9.8,5.8,13.9c1.3,1.7,4.6,5.5,14.1,9.6
	c8,3.5,16.6,5.6,25.3,6.2l103.1-327.4c10.4-32,15.1-42.4,16.6-41.9s0.5,11.7-5.8,44l26,7.5c0.7-7,3.6-25.3,17.3-40.6
	c5.1-5.6,11.1-10.3,17.9-13.8c7.6-3.2,65.4-29,82-93.2C1065.5,557.1,1030.4,479.4,966.4,454.4z M973.8,525.1
	c-4.6,18.6-22.3,29.6-39.6,24.6c-17.2-5-27.5-24-22.8-42.6c4.6-18.6,22.3-29.6,39.6-24.6S978.5,506.5,973.8,525.1z"/>
<path class="st23" d="M867.5,711.7l-98.3,317c-0.1,0.4-0.3,0.8-0.6,1.2c-0.3,0.3-0.6,0.6-1,0.8c-0.4,0.2-0.8,0.3-1.3,0.4
	c-0.4,0-0.9,0-1.3-0.2l-6.6-2.4c-0.8-0.3-1.5-1-1.9-1.8s-0.4-1.8-0.1-2.6l98.3-317c0.1-0.4,0.3-0.8,0.6-1.2c0.3-0.3,0.6-0.6,1-0.8
	s0.8-0.3,1.2-0.4c0.4,0,0.9,0,1.3,0.2l6.6,2.4c0.8,0.3,1.5,1,1.9,1.8C867.7,709.9,867.7,710.8,867.5,711.7z M954.2,686.4L842,650.8
	c-5.6-1.8-8.8-8.1-7.1-14.1l6.4-23.2c1.7-6,7.5-9.5,13.1-7.7l112.2,35.6c5.6,1.8,8.8,8.1,7.1,14.1l-6.3,23.2
	C965.7,684.8,959.8,688.2,954.2,686.4z"/>
<path class="st13" d="M1022.9,509.1c-1,0.2-1.9,0.6-2.7,1.3c-0.7,0.7-1.2,1.6-1.5,2.6c-0.2,1,0,2.1,0.4,3.1c0.5,1,1.2,1.7,2.1,2.2
	c1.3,0.6,2.8,0.8,4.1,0.4c0.6-0.1,1.3-0.3,4.9-2.7c2.3-1.5,4.7-3.2,4.7-3.2c0.5,2.1,0.4,4.3-0.4,6.3c-0.7,1.8-1.9,3-4.4,5.5
	c-2.1,2.1-2.6,2.3-4.3,4.3c-2.4,2.8-2.5,4-2.5,4.8c0,0.6,0.1,1.3,0.4,1.9c0.3,0.6,0.6,1.1,1.1,1.6c0.6,0.5,1.2,0.8,1.9,1
	c0.7,0.2,1.4,0.2,2.2,0c-1.7,1-3.4,2.2-4.9,3.6c-2.6,2.4-2.8,3.4-2.9,4c0,1.2,0.3,2.3,1.1,3.2c0.8,1.1,1.9,1.9,3.1,2.3
	c-0.1,0.1-2.6,1.6-2.5,3.5c0.2,2.3,3.9,3.2,4.5,3.3c0.8,0.2,2.2,0.4,7.8-1.2c2.7-0.7,5.4-1.6,8-2.8c3.8-1.8,4.4-2.7,4.7-3.2
	c0.4-0.7,0.7-1.6,0.8-2.4c0.1-0.9-0.1-1.7-0.4-2.5s-0.8-1.5-1.4-2.1s-1.4-1-2.2-1.3c1,0.1,2-0.1,2.8-0.5c0.9-0.4,1.7-1,2.3-1.7
	s1.1-1.6,1.3-2.6c0.2-0.9,0.2-1.9,0-2.9c-0.1-1-0.4-3.2-2-4c-1.2-0.6-2.1,0.1-5,0.3c-1.2,0.1-2.4,0.1-3.7,0c2.2-0.9,4.2-2.3,5.9-4.1
	c1.4-1.5,2.7-2.8,3.1-5c0.2-0.9,0.1-1.9-0.1-2.8s-0.7-1.7-1.2-2.5c-1-1.1-2.4-1.8-3.9-2c-1.8-0.2-3.7,0.2-5.2,1.3
	c-2.5-2.5-2.8-4.1-2.5-5.1s1.3-1.3,1.7-2.5c0.1-0.8,0-1.7-0.3-2.5s-0.9-1.4-1.6-1.9c-2.5-1.7-6,0.1-6.6,0.4c-1.3,0.6-1.4,1.1-4,2.9
	C1024.6,508.1,1023.5,508.8,1022.9,509.1z"/>
<path class="st6" d="M45.5,282.6l2.2,192.1l2.3,191l1.3,107.8c0,0.3,0.1,0.6,0.4,0.9c0.2,0.2,0.6,0.4,0.9,0.4c0.3,0,0.6-0.1,0.9-0.4
	c0.2-0.2,0.4-0.6,0.4-0.9l-2.2-192.1l-2.2-191.1L48,282.6c0-0.3-0.1-0.6-0.4-0.9c-0.2-0.2-0.6-0.4-0.9-0.4s-0.6,0.1-0.9,0.4
	C45.7,281.9,45.5,282.2,45.5,282.6z M51.3,798.6V818c0,0.3,0.1,0.7,0.4,0.9c0.2,0.2,0.6,0.4,0.9,0.4c0.3,0,0.6-0.1,0.9-0.4
	c0.2-0.2,0.4-0.6,0.4-0.9v-19.4c0-0.3-0.1-0.6-0.4-0.9c-0.2-0.2-0.6-0.4-0.9-0.4c-0.3,0-0.6,0.1-0.9,0.4
	C51.4,798,51.3,798.3,51.3,798.6z"/>
<path class="st6" d="M46.8,284.6l161.8-2.1l161-2.1l90.8-1.2c0.3,0,0.6-0.1,0.9-0.4c0.2-0.2,0.4-0.6,0.4-0.9s-0.1-0.6-0.4-0.9
	c-0.2-0.2-0.6-0.4-0.9-0.4l-161.8,2.1l-161,2.1L46.8,282c-0.3,0-0.6,0.1-0.9,0.4c-0.2,0.2-0.4,0.6-0.4,0.9s0.1,0.6,0.4,0.9
	C46.1,284.5,46.4,284.6,46.8,284.6z M386.2,954c6.7,27.4,5.4,56.1-3.8,82.7c-2.6,7.5-5.8,14.7-9.5,21.7c-0.8,1.4,1.4,2.7,2.2,1.3
	c13.6-25.3,19.7-54.1,17.4-82.7c-0.6-8-1.9-15.9-3.9-23.6c-0.1-0.3-0.3-0.6-0.6-0.8c-0.3-0.2-0.6-0.2-1-0.1
	c-0.3,0.1-0.6,0.3-0.8,0.6C386.2,953.3,386.1,953.7,386.2,954z M319.6,1081.2c-1.3-4.5,2.9-8.1,6.8-9.3c4.9-1.4,10.4-0.7,15.4-0.6
	l33.7,0.6l19,0.3c0.3,0,0.6-0.1,0.9-0.4c0.2-0.2,0.4-0.5,0.4-0.9c0-0.3-0.1-0.6-0.4-0.9c-0.2-0.2-0.6-0.4-0.9-0.4l-36.4-0.6
	l-18.2-0.3c-5.3-0.1-11-0.7-16,1.4c-4.4,1.9-8,6.7-6.6,11.7c0,0.2,0.1,0.3,0.2,0.4s0.2,0.2,0.4,0.3c0.1,0.1,0.3,0.1,0.5,0.2
	s0.3,0,0.5,0s0.3-0.1,0.4-0.2s0.2-0.2,0.3-0.4s0.1-0.3,0.2-0.5C319.8,1081.5,319.8,1081.4,319.6,1081.2L319.6,1081.2z M918,299.9
	l-0.4,56.5l-0.4,56.5l-0.2,32c0,0.3,0.1,0.6,0.4,0.9c0.2,0.2,0.6,0.4,0.9,0.4c0.3,0,0.6-0.1,0.9-0.4c0.2-0.2,0.4-0.6,0.4-0.9
	l0.4-56.5l0.4-56.5l0.2-32c0-0.3-0.1-0.7-0.4-0.9c-0.2-0.2-0.6-0.4-0.9-0.4s-0.6,0.1-0.9,0.4S918,299.6,918,299.9L918,299.9z
	 M910,461.4c-16.5,2.7-32.2,8.9-46.1,18c-14,9.1-26,21-35.4,34.8c-9.5,14-15.8,29.9-18.5,46.6c-2.7,17.3-1.7,34.9,2.9,51.8
	c4.5,16.8,12.6,32.5,23.7,46c1.4,1.7,2.8,3.3,4.3,4.9c2.2,2.4,5.7-1.2,3.5-3.5c-11.3-12.3-19.8-26.9-24.9-42.8
	c-5.2-16-7-32.9-5.3-49.6c1.7-16.2,7-31.9,15.5-45.9c8.3-13.6,19.3-25.5,32.3-34.8c13-9.4,27.8-16.1,43.5-19.5
	c2-0.4,3.9-0.8,5.9-1.1c0.6-0.2,1.2-0.6,1.5-1.2s0.4-1.3,0.2-1.9s-0.6-1.2-1.2-1.5C911.3,461.3,910.6,461.2,910,461.4L910,461.4z
	 M886.9,738l-19.3,60.4l-19.3,60.4L829,919.1l-19.3,60.4l-19.2,60.1l-2.5,7.7c-1,3.1,3.8,4.4,4.8,1.3l19.3-60.4l19.3-60.4l19.3-60.4
	L870,807l19.2-60l2.4-7.7C892.7,736.3,887.9,735,886.9,738L886.9,738z M779,408.6c-14.6,7.5-30.2,13.3-46.2,17.1
	c-4.5,1.1-9.1,2-13.7,2.8c-1.6,0.3-0.9,2.7,0.7,2.4c16.4-2.8,32.4-7.5,47.6-14.1c4.3-1.9,8.6-3.9,12.8-6.1
	C781.7,410.1,780.4,407.9,779,408.6z M672.7,412.7l7.5,23.3c0.5,1.5,2.9,0.9,2.4-0.7l-7.5-23.3C674.6,410.6,672.2,411.2,672.7,412.7
	L672.7,412.7z"/>
<path d="M724.7,311.2c4-3.6,9.4-3,11.6,0.2c1.6,2.3,1.6,6-0.1,9.1c-0.4-1.3-1.3-3.7-3.5-5.8C729.6,311.7,725.9,311.3,724.7,311.2z"
	/>
<g>
	<g>
		<path d="M723.8,325.1c1.6,0,3,2.9,2.7,5.4c-0.3,2.4-2.2,5-3.7,4.8s-2.2-3-2.1-5.1C720.9,328,722.3,325.2,723.8,325.1z"/>
	</g>
</g>
<path d="M698.7,321.4c1.5,0.2,2.5,3.4,1.9,5.9c-0.6,2.4-2.9,4.6-4.4,4.1c-1.4-0.5-1.7-3.4-1.3-5.4
	C695.4,323.8,697.2,321.2,698.7,321.4z"/>
<g>
	<g>
		<path class="st24" d="M709.4,331.4c-0.9,3.2-0.9,5.7-0.8,7.6c0.2,2.3,0.8,4,0,4.8c-0.5,0.5-1,0.1-3.7-0.1c-2.1-0.2-2.5,0-2.8-0.4
			c-0.2-0.3-0.2-0.8,2.4-5.2c1.6-2.6,2.3-3.6,2.7-4.1C708,332.8,708.8,332,709.4,331.4z"/>
	</g>
</g>
<g>
	<g>
		<path class="st6" d="M694.9,351.1c3.1,1.7,6.9,3.5,11.4,5c3.1,1,5.9,1.8,8.5,2.3c-1.7,5-7.1,7.6-11.9,6.4
			C697.1,363.4,692.9,357.1,694.9,351.1z"/>
	</g>
</g>
<path d="M689.4,311.5c1-5.4,5.7-8.7,9.4-7.9c2.7,0.6,4.8,3.3,5.3,6.8c-1.1-0.7-3.3-1.8-6.2-1.8C693.6,308.5,690.5,310.7,689.4,311.5
	z"/>
</svg>
